<svg width="127" height="24" viewBox="0 0 127 24" fill="none" xmlns="http://www.w3.org/2000/svg">
<path d="M14.9927 13.709L14.9927 23.9582L12.3309 21.2965C12.2431 21.2087 12.177 21.1016 12.1377 20.9838L11.3417 18.5958C11.2926 18.4485 11.2973 18.2887 11.3549 18.1446C11.9079 16.7622 12.7963 15.5393 13.9401 14.5861L14.9927 13.709Z" fill="url(#paint0_linear_24153_45488)"/>
<path d="M14.9927 13.709L14.9927 23.9582L17.6544 21.2965C17.7422 21.2087 17.8084 21.1016 17.8477 20.9838L18.6437 18.5958C18.6928 18.4485 18.6881 18.2887 18.6304 18.1446C18.0775 16.7622 17.189 15.5393 16.0453 14.5861L14.9927 13.709Z" fill="url(#paint1_linear_24153_45488)"/>
<path d="M10.2246 11.375L2.9773 18.6223L2.97729 14.8581C2.97729 14.7339 3.0062 14.6114 3.06175 14.5003L4.18748 12.2488C4.25689 12.11 4.37325 12.0003 4.51591 11.9391C5.88437 11.3527 7.37734 11.1161 8.86007 11.2509L10.2246 11.375Z" fill="url(#paint2_linear_24153_45488)"/>
<path d="M10.2246 11.375L2.97731 18.6223L6.74154 18.6223C6.86574 18.6223 6.98823 18.5934 7.09931 18.5379L9.3508 17.4121C9.48961 17.3427 9.59933 17.2264 9.66047 17.0837C10.247 15.7152 10.4835 14.2223 10.3487 12.7395L10.2246 11.375Z" fill="url(#paint3_linear_24153_45488)"/>
<path d="M19.7759 11.375L27.0232 18.6223L27.0232 14.8581C27.0232 14.7339 26.9943 14.6114 26.9387 14.5003L25.813 12.2488C25.7436 12.11 25.6272 12.0003 25.4846 11.9391C24.1161 11.3527 22.6231 11.1161 21.1404 11.2509L19.7759 11.375Z" fill="url(#paint4_linear_24153_45488)"/>
<path d="M19.7759 11.375L27.0232 18.6223L23.2589 18.6223C23.1348 18.6223 23.0123 18.5934 22.9012 18.5379L20.6497 17.4121C20.5109 17.3427 20.4012 17.2264 20.34 17.0837C19.7535 15.7152 19.517 14.2223 19.6518 12.7395L19.7759 11.375Z" fill="url(#paint5_linear_24153_45488)"/>
<circle cx="14.9923" cy="8.73936" r="6.83288" fill="url(#paint6_linear_24153_45488)" stroke="url(#paint7_linear_24153_45488)" stroke-width="3.72703"/>
<circle cx="14.9925" cy="8.73957" r="2.48468" fill="#E0EBFF"/>
<path d="M36.1357 17.7121L33 17.7291V6.2878H37.39C40.7801 6.2878 42.7632 7.89805 42.7632 10.5592C42.7632 13.3051 40.8817 14.9323 37.5595 14.9323H36.1357V17.7121ZM37.4748 9.1693H36.1357V12.0508H37.4748C38.8816 12.0508 39.5427 11.5254 39.5427 10.5592C39.5427 9.66085 38.8308 9.1693 37.4748 9.1693Z" fill="white"/>
<path d="M47.673 17.7291H44.5373V6.2878H47.673V10.5931H52.1648V6.2878H55.3005V17.7291H52.1648V13.4746H47.673V17.7291Z" fill="white"/>
<path d="M63.1979 17.9833C59.7401 17.9833 57.1637 15.4239 57.1637 12.0169C57.1637 8.60995 59.7401 6.0505 63.1979 6.0505C66.6557 6.0505 69.2321 8.60995 69.2321 12.0169C69.2321 15.4239 66.6557 17.9833 63.1979 17.9833ZM63.1979 15.0171C64.7912 15.0171 66.0116 13.7119 66.0116 12.0169C66.0116 10.3219 64.7912 9.01675 63.1979 9.01675C61.6046 9.01675 60.3842 10.3219 60.3842 12.0169C60.3842 13.7119 61.6046 15.0171 63.1979 15.0171Z" fill="white"/>
<path d="M79.6133 6.2878V9.1693H76.3758V17.7291H73.2401V9.1693H70.0026V6.2878H79.6133Z" fill="white"/>
<path d="M86.4048 17.9833C82.947 17.9833 80.3706 15.4239 80.3706 12.0169C80.3706 8.60995 82.947 6.0505 86.4048 6.0505C89.8626 6.0505 92.439 8.60995 92.439 12.0169C92.439 15.4239 89.8626 17.9833 86.4048 17.9833ZM86.4048 15.0171C87.9981 15.0171 89.2185 13.7119 89.2185 12.0169C89.2185 10.3219 87.9981 9.01675 86.4048 9.01675C84.8115 9.01675 83.5911 10.3219 83.5911 12.0169C83.5911 13.7119 84.8115 15.0171 86.4048 15.0171Z" fill="white"/>
<path d="M97.1928 17.7291H94.2266V7.96585C94.2266 6.74545 95.1758 6.0166 96.1758 6.0166C96.9725 6.0166 97.6674 6.2878 98.0742 6.9319L102.108 13.3221V6.2878H105.075V16.051C105.075 17.2714 104.125 17.9833 103.125 17.9833C102.346 17.9833 101.634 17.7121 101.227 17.068L97.1928 10.6779V17.7291Z" fill="white"/>
<path d="M126.679 17.9227H122.059V10.8027H123.449V16.6827H126.679V17.9227Z" fill="url(#paint8_linear_24153_45488)"/>
<path d="M120.643 14.3632C120.643 14.6698 120.639 14.9565 120.633 15.2232C120.626 15.4898 120.599 15.7398 120.553 15.9732C120.513 16.2065 120.443 16.4265 120.343 16.6332C120.249 16.8332 120.113 17.0232 119.933 17.2032C119.679 17.4565 119.396 17.6498 119.083 17.7832C118.776 17.9165 118.419 17.9832 118.013 17.9832C117.606 17.9832 117.246 17.9165 116.933 17.7832C116.619 17.6498 116.336 17.4565 116.083 17.2032C115.903 17.0232 115.763 16.8332 115.663 16.6332C115.569 16.4265 115.503 16.2065 115.463 15.9732C115.423 15.7398 115.399 15.4898 115.393 15.2232C115.386 14.9565 115.383 14.6698 115.383 14.3632C115.383 14.0565 115.386 13.7698 115.393 13.5032C115.399 13.2365 115.423 12.9865 115.463 12.7532C115.503 12.5198 115.569 12.3032 115.663 12.1032C115.763 11.8965 115.903 11.7032 116.083 11.5232C116.336 11.2698 116.619 11.0765 116.933 10.9432C117.246 10.8098 117.606 10.7432 118.013 10.7432C118.419 10.7432 118.776 10.8098 119.083 10.9432C119.396 11.0765 119.679 11.2698 119.933 11.5232C120.113 11.7032 120.249 11.8965 120.343 12.1032C120.443 12.3032 120.513 12.5198 120.553 12.7532C120.599 12.9865 120.626 13.2365 120.633 13.5032C120.639 13.7698 120.643 14.0565 120.643 14.3632ZM119.253 14.3632C119.253 14.0232 119.246 13.7432 119.233 13.5232C119.226 13.2965 119.209 13.1098 119.183 12.9632C119.156 12.8165 119.119 12.6998 119.073 12.6132C119.026 12.5198 118.969 12.4365 118.903 12.3632C118.803 12.2498 118.676 12.1598 118.523 12.0932C118.376 12.0198 118.206 11.9832 118.013 11.9832C117.819 11.9832 117.646 12.0198 117.493 12.0932C117.339 12.1598 117.213 12.2498 117.113 12.3632C117.046 12.4365 116.989 12.5198 116.943 12.6132C116.903 12.6998 116.869 12.8165 116.843 12.9632C116.816 13.1098 116.796 13.2965 116.783 13.5232C116.776 13.7432 116.773 14.0232 116.773 14.3632C116.773 14.7032 116.776 14.9865 116.783 15.2132C116.796 15.4332 116.816 15.6165 116.843 15.7632C116.869 15.9098 116.903 16.0298 116.943 16.1232C116.989 16.2098 117.046 16.2898 117.113 16.3632C117.213 16.4765 117.339 16.5698 117.493 16.6432C117.646 16.7098 117.819 16.7432 118.013 16.7432C118.206 16.7432 118.376 16.7098 118.523 16.6432C118.676 16.5698 118.803 16.4765 118.903 16.3632C118.969 16.2898 119.026 16.2098 119.073 16.1232C119.119 16.0298 119.156 15.9098 119.183 15.7632C119.209 15.6165 119.226 15.4332 119.233 15.2132C119.246 14.9865 119.253 14.7032 119.253 14.3632Z" fill="url(#paint9_linear_24153_45488)"/>
<path d="M114.315 15.8232C114.315 16.1698 114.245 16.4765 114.105 16.7432C113.971 17.0098 113.785 17.2365 113.545 17.4232C113.311 17.6032 113.035 17.7432 112.715 17.8432C112.395 17.9365 112.048 17.9832 111.675 17.9832C111.135 17.9832 110.651 17.9165 110.225 17.7832C109.805 17.6432 109.421 17.3965 109.075 17.0432L109.975 16.1432C110.201 16.3698 110.461 16.5265 110.755 16.6132C111.048 16.6998 111.361 16.7432 111.695 16.7432C112.108 16.7432 112.421 16.6698 112.635 16.5232C112.848 16.3698 112.955 16.1498 112.955 15.8632C112.955 15.6032 112.881 15.4032 112.735 15.2632C112.661 15.1965 112.578 15.1465 112.485 15.1132C112.398 15.0732 112.271 15.0398 112.105 15.0132L111.245 14.8932C110.638 14.8065 110.178 14.6098 109.865 14.3032C109.525 13.9632 109.355 13.4965 109.355 12.9032C109.355 12.5832 109.411 12.2932 109.525 12.0332C109.638 11.7665 109.801 11.5398 110.015 11.3532C110.228 11.1598 110.488 11.0098 110.795 10.9032C111.101 10.7965 111.448 10.7432 111.835 10.7432C112.328 10.7432 112.758 10.8065 113.125 10.9332C113.491 11.0598 113.828 11.2732 114.135 11.5732L113.255 12.4432C113.028 12.2298 112.785 12.0965 112.525 12.0432C112.271 11.9832 112.028 11.9532 111.795 11.9532C111.421 11.9532 111.145 12.0432 110.965 12.2232C110.785 12.3965 110.695 12.6065 110.695 12.8532C110.695 12.9465 110.711 13.0365 110.745 13.1232C110.778 13.2098 110.831 13.2898 110.905 13.3632C110.978 13.4298 111.068 13.4898 111.175 13.5432C111.288 13.5898 111.418 13.6232 111.565 13.6432L112.405 13.7632C112.731 13.8098 113.001 13.8798 113.215 13.9732C113.428 14.0598 113.611 14.1732 113.765 14.3132C113.958 14.4932 114.098 14.7098 114.185 14.9632C114.271 15.2165 114.315 15.5032 114.315 15.8232Z" fill="url(#paint10_linear_24153_45488)"/>
<defs>
<linearGradient id="paint0_linear_24153_45488" x1="14.9927" y1="13.709" x2="14.9927" y2="23.6477" gradientUnits="userSpaceOnUse">
<stop stop-color="#8100E7"/>
<stop offset="0.536458" stop-color="#3EFFF3"/>
<stop offset="1" stop-color="#00BBF5"/>
</linearGradient>
<linearGradient id="paint1_linear_24153_45488" x1="14.9927" y1="13.709" x2="14.9927" y2="23.6477" gradientUnits="userSpaceOnUse">
<stop stop-color="#1D0AFF"/>
<stop offset="0.510417" stop-color="#00C2FF"/>
</linearGradient>
<linearGradient id="paint2_linear_24153_45488" x1="10.2246" y1="11.375" x2="3.19686" y2="18.4027" gradientUnits="userSpaceOnUse">
<stop stop-color="#8100E7"/>
<stop offset="0.536458" stop-color="#3EFFF3"/>
<stop offset="1" stop-color="#00BBF5"/>
</linearGradient>
<linearGradient id="paint3_linear_24153_45488" x1="10.2246" y1="11.375" x2="3.19686" y2="18.4027" gradientUnits="userSpaceOnUse">
<stop stop-color="#1D0AFF"/>
<stop offset="0.510417" stop-color="#00C2FF"/>
</linearGradient>
<linearGradient id="paint4_linear_24153_45488" x1="19.7759" y1="11.375" x2="26.8036" y2="18.4027" gradientUnits="userSpaceOnUse">
<stop stop-color="#1D0AFF"/>
<stop offset="0.510417" stop-color="#00C2FF"/>
</linearGradient>
<linearGradient id="paint5_linear_24153_45488" x1="19.7759" y1="11.375" x2="26.8036" y2="18.4027" gradientUnits="userSpaceOnUse">
<stop stop-color="#8100E7"/>
<stop offset="0.536458" stop-color="#3EFFF3"/>
<stop offset="1" stop-color="#00BBF5"/>
</linearGradient>
<linearGradient id="paint6_linear_24153_45488" x1="14.9923" y1="0.0429687" x2="14.9923" y2="17.4358" gradientUnits="userSpaceOnUse">
<stop stop-color="#232323"/>
<stop offset="0.489583" stop-color="#202947"/>
<stop offset="1" stop-color="#232323"/>
</linearGradient>
<linearGradient id="paint7_linear_24153_45488" x1="14.9923" y1="0.0429687" x2="14.9923" y2="17.4358" gradientUnits="userSpaceOnUse">
<stop stop-color="#57FFD7"/>
<stop offset="0.510417" stop-color="#E95FFF"/>
<stop offset="1" stop-color="#01FFFF"/>
</linearGradient>
<linearGradient id="paint8_linear_24153_45488" x1="108.814" y1="13.9393" x2="127.785" y2="14.6791" gradientUnits="userSpaceOnUse">
<stop stop-color="#F694FF"/>
<stop offset="0.364583" stop-color="#4FFFF4"/>
<stop offset="0.744792" stop-color="#FFE7AA"/>
<stop offset="1" stop-color="#FF79EA"/>
</linearGradient>
<linearGradient id="paint9_linear_24153_45488" x1="108.814" y1="13.9398" x2="127.785" y2="14.6795" gradientUnits="userSpaceOnUse">
<stop stop-color="#F694FF"/>
<stop offset="0.364583" stop-color="#4FFFF4"/>
<stop offset="0.744792" stop-color="#FFE7AA"/>
<stop offset="1" stop-color="#FF79EA"/>
</linearGradient>
<linearGradient id="paint10_linear_24153_45488" x1="108.814" y1="13.9398" x2="127.785" y2="14.6795" gradientUnits="userSpaceOnUse">
<stop stop-color="#F694FF"/>
<stop offset="0.364583" stop-color="#4FFFF4"/>
<stop offset="0.744792" stop-color="#FFE7AA"/>
<stop offset="1" stop-color="#FF79EA"/>
</linearGradient>
</defs>
</svg>
